<?xml version="1.0" encoding="UTF-8"?>
<svg id="Layer_1" data-name="Layer 1" xmlns="http://www.w3.org/2000/svg" viewBox="0 0 1190.55118 1190.55118">
  <defs>
    <style>
      .cls-1 {
        fill: #e84b76;
      }
    </style>
  </defs>
  <path class="cls-1" d="M445.49157,7.94822c.60827,1.61223,3.68711.927,5.15079.93651,39.95318.2594,79.92136-.3506,119.87285,0,109.45319.96052,220.03219,3.90994,329.65033,4.68253,91.67192.6461,182.49133-.84647,273.45994-1.87301.55455,1.0495,1.32539.74246,1.87301.93651,1.26055.44667-.52484,3.49632,1.40476,3.74603v1143.47459c-1.99913-.21136-3.08488.79049-5.15079.93651-13.90946.98308-27.17835,1.17422-41.20629,1.87301-11.39036.5674-24.17644,2.36409-35.58725,2.80952-93.66692,3.65634-187.79606,5.83751-282.825,6.55555-1.46487.01107-4.54146-.67695-5.15079.93651h-62.74594c-.60832-1.61224-3.68715-.92701-5.15079-.93651-215.82838-1.40108-431.55126-6.7915-648.06259-3.74603-17.24528.24257-34.85304-.14339-51.50786.93651-1.6252.10538-10.38906.38077-10.76983,0-.19435-.19435.1869-1.64962,0-2.34127-1.36863-5.06484-.65108-8.69627-.93651-14.0476-1.85075-34.69873-5.42103-70.74994-6.55555-105.82525-2.69594-83.34893-3.65268-166.70004-4.68253-250.98378-.02256-1.84611.95181-3.81145-1.87301-3.27777v-49.63485c2.82476.53368,1.85045-1.43146,1.87301-3.27777,1.59531-130.53869,2.58655-259.96639,3.74603-390.52326.76879-86.56502,2.0975-175.00965.93651-262.22186-.22501-16.90252-1.00243-36.48152-1.87301-53.38088-.23198-4.50304.16776-9.08118,0-13.57935,2.60683-.15742,5.36652.22338,7.96031,0,20.68897-1.78174,42.82372-3.81548,63.68245-4.68253,100.6319-4.18307,201.65366-7.29929,304.36465-6.55555l.46825-.93651h49.63485ZM1138.50647,59.45609c-1.5042.51459-1.9746-.87198-2.34127-.93651-3.36323-.59183-8.44392.21411-12.17459,0-47.03021-2.6992-95.52648-7.15196-143.28551-8.42856-208.78853-5.58092-419.23876-.94321-628.39595.93651-89.18315.8015-181.04681,2.29973-269.71391-.93651-6.38209-.23294-12.82211.17025-19.19839,0-.16629,4.49975.22997,9.07584,0,13.57935-1.23268,24.13997-3.14041,49.71673-3.74603,73.98402-1.6023,64.20444-1.98702,128.71587-3.74603,192.92037-.22204,8.10458.16314,16.24117,0,24.34917.96209,1.43533,2.57183,1.79452,4.21428,1.40476.33504-.07951.53138-.75051.93651-.93651.28883-.1326.73421.1204.93651,0,1.20028-.71439,2.47336-2.78691,3.74603-3.74603,8.11786-6.11789,30.96179-16.40904,40.26978-17.79363,6.36718-.94713,8.06162,1.71708,2.80952,5.61904-3.00211,2.23037-7.05127,4.27526-10.30157,6.55555-11.15594,7.82655-18.99499,13.88599-32.77773,17.79363-.38092.108-.58897.87453-.93651.93651-1.84027.3282-8.89681-.8229-8.89681,1.40476v88.49988c2.4927-.27868,5.58707.39479,7.96031,0,.35852-.05964.62463-.93651.93651-.93651.30622,0,.55392.83441.93651.93651.60325.16099,1.33606-.18321,1.87301,0,.53252.1817.79934,1.43481,2.34127.93651-.51459,1.5042.87198,1.9746.93651,2.34127.24958,1.4183-.29775,3.35342,0,4.68253.06089.2718,1.88794,3.14763,2.34127,3.27777.58671.16844,1.31767-.17887,1.87301,0,.37961.12227.57201.83604.93651.93651,1.23347.33998,1.51217-.86365,1.87301-.93651.86379-.17441,2.03751.21275,2.80952,0,.56993-.15706,3.07323-3.38551,4.68253-3.74603,1.1708-.26229,6.21868-.22713,7.49205,0,.15739.02807,1.94888.67436,2.80952.93651,7.69367,2.3435,14.39005,7.64729,22.94441,6.55555v1.87301c3.70575,1.51051,7.78147-4.60575,10.76983-3.74603,1.71505.4934,1.09404,4.18982,2.80952,4.68253,2.20348.63288,2.19507-2.66332,2.34127-2.80952.31661-.31661,6.83363-3.29983,7.96031-3.74603.99181-.39278,3.48743-.64074,4.68253-.93651.37244-.09217.58527-.87416.93651-.93651,4.23729-.75216,12.58795,1.08214,16.85712,1.87301,1.32709.24585,5.38684,1.75237,6.55555,1.87301,1.98321.20472,6.61393.32368,8.42856,0,.34729-.06195.55508-.82746.93651-.93651.60599-.17325,1.36558.20233,1.87301,0,2.03675-.81213,6.03118-4.1439,6.08729-6.55555h4.68253c.13538-1.3543-.20435-2.92234,0-4.21428.79849-5.04826,1.44762-11.7818,1.87301-16.85712.32519-3.87978-.55964-6.39543-.93651-9.36507-.71488-5.63316-.95451-9.3971-2.80952-14.98411-2.38788-7.19192-7.38984-17.11448-11.23808-23.41267-.14551-.23815.13653-.72942,0-.93651-3.62865-5.50381-6.25575-3.71808-8.42856-12.17459-.37119-1.44467-1.54244-4.19793-1.87301-5.61904-.56892-2.44572.52431-2.97887-2.34127-5.15079-.18626-.14117-.71462.15542-.93651,0-1.14185-.79982-2.3285-2.24539-3.74603-2.80952-3.11411-1.23932-6.22396-.4769-9.36507-.93651-.34741-.05083-.57308-.86385-.93651-.93651-.8672-.17336-2.05866.2199-2.80952,0-.36869-.10798-.55976-.81617-.93651-.93651-.557-.17792-1.28703.16823-1.87301,0-.22277-.06396-3.01853-2.8422-3.27777-3.27777-1.10467-1.85601-.76834-4.69954-1.87301-6.55555-.76119-1.27891-4.44842-3.833-4.68253-4.68253-.21551-.78203.19468-1.9726,0-2.80952-.0863-.371-.88601-.59143-.93651-.93651-.37167-2.54013.50147-6.10001,0-8.42856-.19062-.88515-2.90717-4.47337-3.74603-6.55555-.15745-.39083-.82849-.57836-.93651-.93651-1.18432-3.92662,5.95119-4.73969,8.89681-4.21428.34344.06126.54808.81244.93651.93651.557.17792,1.28703-.16823,1.87301,0,2.7221.78149,2.02533,4.335,2.34127,6.08729.06689.371,1.45092.83554.93651,2.34127h1.87301c-.02727,1.79708.34315,4.59594.93651,6.08729.23138.58156,1.867,3.14269,2.34127,3.27777.58723.16726,1.31652-.17759,1.87301,0,.38837.12394.59303.87525.93651.93651,1.26803.22615,4.26388.1691,5.61904,0,.34644-.04323.59868-.90488.93651-.93651,6.57061-.61506,13.92976.45076,20.60315,0,.47287,1.05575,1.59149.76895,1.87301.93651.62294.37077,4.78002,4.52785,5.15079,5.15079,1.50908,2.53548.99273,7.45657,2.80952,10.30157,1.05751,1.65601,3.12293,1.58652,4.21428,2.34127,2.11274,1.46111,3.05565,3.60549,4.21428,5.15079,17.03748,22.7234,26.72086,43.91673,24.34917,73.04752-.13522,1.66083-1.7378,6.76773-1.87301,8.42856-.43646,5.36094,1.02075,14.17363,0,18.73013-.07456.33281-.75162.53056-.93651.93651-.13225.29036.12.73488,0,.93651-2.25391,3.78691-6.98277,1.83198-7.49205,2.34127-.20038.20038.20059,1.66559,0,2.34127-.1877.63225-3.37984,3.04794-3.74603,4.68253-.73854,3.29675-.29868,16.54266,0,20.60315.02451.33318.90525.59819.93651.93651.28876,3.12516-.90157,8.95281,2.34127,10.76983.44158.24743,1.2297-.17506,1.40476,0,.16362.16362-.21058.89915,0,1.40476.16861.40485.8769.60652.93651.93651.14815.82015.16772,2.97215,0,3.74603-.33157,1.52989-3.40206,5.53859-3.74603,7.49205-1.2407,20.42164,2.81401,44.36264-2.80952,62.74594-.38051,1.24389-.56508,3.42462-.93651,4.68253-.13077.44289-1.4378,1.23333-1.87301,1.87301-1.25161,1.83965-2.11283,3.46584-4.21428,5.15079-.82119.65843-3.89177,2.15515-4.68253,2.80952-2.16869,1.79463-6.06138,5.75753-7.0238,7.96031-.67445,1.54368-1.29967,4.83374-1.87301,6.55555-.74143,2.2266-1.28633,4.19691-1.87301,6.55555-.09269.37266-.87384.58518-.93651.93651-.29417,1.64921-.18777,5.69319,0,7.49205.12601,1.2072,1.58427,5.16411,1.87301,6.55555.75313,3.62931,2.3901,8.37164,2.80952,11.23808.85066,5.8137-.37568,13.69376-1.87301,18.73013-1.60338,5.39305-4.46477,10.69768-5.61904,15.92061-.94588,4.27998-.56453,8.59608-.93651,13.11109-.02766.33571-.91425.60495-.93651.93651-.44063,6.56539-.77512,19.0074,0,25.28568.04236.34309.87271.57741.93651.93651.20362,1.14605-.22869,2.64424,0,3.74603.07265.35004.81322.55052.93651.93651.17792.557-.16823,1.28703,0,1.87301.06396.22277,2.8422,3.01853,3.27777,3.27777.20162.12.64614-.13225.93651,0,.40595.18489.6037.86195.93651.93651,3.12529.70013,6.69373-1.00012,9.36507-1.87301,13.03525-4.25944,27.92043-1.13463,41.20629-3.74603,4.02557-.79124,8.28096-2.52737,12.17459-3.74603,1.37762-.43118,6.63752-1.48673,7.0238-1.87301.17489-.17489-.24683-.96177,0-1.40476,1.95114-3.50178,6.21164-1.99736,6.55555-2.34127.15301-.15301-.43952-3.23778,1.40476-3.74603.79525-.21915,2.01427.21915,2.80952,0,1.45149-.4,10.8678-9.42848,14.0476-11.23808,2.53439-1.4423,5.57171-2.10261,8.42856-2.80952.37243-.09216.58526-.87416.93651-.93651,3.42322-.60766,10.0919.01686,13.11109.93651,3.02092.92018,7.43359,3.32638,10.30157,3.74603,1.57347.23023,4.9451.20203,6.55555,0,.34231-.04294.57216-.86376.93651-.93651.88729-.17717,3.05491.22286,3.27777,0,.16394-.16394-.21155-.9004,0-1.40476.13582-.32382.83402-1.70482.93651-1.87301.984-1.61492,19.12536-18.8445,21.0714-20.13489,3.62722-2.40516,8.20128-4.75539,12.17459-6.55555,25.24296-11.43666,48.82167-16.2357,75.85704-19.66664,13.76646-1.74704,29.31285-.12597,43.0793-1.87301,2.66296-.33794,4.12533-.4507,6.55555-.93651,1.64039-.32792,4.0481-.35852,5.61904-.93651.79457-.29234,5.06644-2.44278,5.61904-2.80952.97311-.64582,5.44437-5.11582,6.08729-6.08729.25352-.38307.70297-2.1664.93651-2.80952.14078-.38768.83898-.57834.93651-.93651.21276-.78141-.18562-1.96028,0-2.80952.08039-.36779.88586-.59037.93651-.93651.28333-1.93635.24531-6.44162,0-8.42856-.11393-.92283-1.57892-4.47335-1.87301-5.61904-2.63294-10.25697-7.06879-14.94042-12.17459-23.41267-9.45492-15.68892-12.31632-32.85116-19.66664-48.69834-1.80987-3.90205-3.69102-3.22277-4.68253-4.21428-.16362-.16362.21058-.89915,0-1.40476-.16876-.4052-.87862-.60757-.93651-.93651-.46753-2.65686,1.24638-6.16833-2.80952-6.08729-1.07297-6.06774-2.16421-13.45418.93651-19.19839.34668-.64224,1.74152-1.39588,1.87301-1.87301.73448-2.66521-.45397-11.89187-.93651-14.98411-1.28078-8.2076-4.77727-17.13122-5.61904-25.28568-.14531-1.40771-.34766-9.48566,0-9.83332.17489-.17489.96177.24683,1.40476,0,1.67043-.93074,2.18499-3.00707,3.27777-4.21428-.51356-10.44238.69514-21.47992,0-31.84123-.02224-.33155-.90885-.6008-.93651-.93651-.33714-4.09239,1.18025-8.68182-2.34127-11.70633-.95038,1.31283-2.71522,1.70685-2.34127-.46825,1.09268-1.15269,1.3-3.13103,1.87301-4.68253.87913-2.38034,2.16946-5.01968,2.80952-7.49205,1.51425-5.84911,1.18677-14.90601.93651-21.53965-.0122-.32333-.9254-.61382-.93651-.93651-.1942-5.64298-.75214-15.39312,0-20.60315.04325-.29962,1.67052-1.64095.93651-3.27777h2.80952c-.47118,3.59069,1.5501,4.10794,4.68253,3.74603-.49469-1.54364.73676-1.78879.93651-2.34127.38344-1.06057,1.778-5.08638,1.87301-5.61904.48609-2.72517.15634-8.24899-2.34127-9.83332-.18675-.11846-.63787.13662-.93651,0-.40617-.18582-.6041-.86208-.93651-.93651-1.48777-.33312-4.71649-.10798-5.15079,1.40476-1.13018,3.93669-1.84015,2.91939-3.74603,5.61904-.19066.27006-.1587,1.80785-1.40476,2.34127h-29.96821c-1.92812,1.49226-4.67291,4.49852-6.55555,5.61904-.20162.12-.64614-.13225-.93651,0-.40595.18489-.6037.86195-.93651.93651-1.31271.29407-3.22931-.20087-4.68253,0l-6.55555-4.68253c-4.40508-.44985-9.81112.61991-14.0476,0-.34623-.05066-.56903-.85668-.93651-.93651-.85051-.18475-2.02914.21289-2.80952,0-.40539-.11059-2.17269-1.49654-2.80952-1.87301-.24871-.14703-.73718.13315-.93651,0-.98329-.65684-1.8148-2.10728-2.80952-2.80952-.19404-.13698-.6999.15119-.93651,0-1.71967-1.09885-4.18785-6.55603-5.15079-8.89681-2.7317-6.64046-2.82248-10.51623-3.74603-17.79363-.04404-.34702-.90581-.59939-.93651-.93651-.42061-4.61889-.47216-13.21962,0-17.79363.03505-.3395.88341-.58385.93651-.93651.21918-1.45578-.23616-3.24982,0-4.68253.0578-.35065.85678-.56999.93651-.93651.18494-.8502-.2128-2.02875,0-2.80952.45527-1.67042,4.63032-8.81176,5.61904-10.30157,1.64281-2.47541,9.17227-11.13865,11.70633-11.70633,1.34168-.30056,3.44537.34094,4.68253,0,.41497-.11436,5.96852-5.67357,6.08729-6.08729.85718-2.98576,1.09537-6.45555,1.87301-9.36507.1348-.50434,1.62261-1.49816.93651-3.27777,4.46536.99494,1.61062-2.08233,4.21428-3.74603,5.61531-3.5881,14.67324-13.22246,16.38887-19.19839.04799-.16716,1.97544-2.12353,2.34127-2.34127.20162-.12.64614.13225.93651,0,.40595-.18489.6037-.86195.93651-.93651,2.07371-.46456,5.28504.39365,7.49205,0,2.64554-.47186,6.24651-4.34049,7.49205-4.68253.86742-.2382,2.25672.15068,3.27777,0l-.93651-2.34127c.58282-1.49313,2.68962-1.28486,2.80952-1.40476.2383-.2383-.1653-3.16922,0-4.21428.05575-.35249.88151-.58398.93651-.93651.31903-2.04483-.6242-6.17245,2.34127-7.0238.58598-.16823,1.31601.17792,1.87301,0,7.07048-2.25842,11.48516-1.12551,18.73013-1.87301.33957-.03503.5844-.88428.93651-.93651,1.42878-.2119,3.48576.3279,4.68253,0,1.10774-.30351,1.41914-2.86431,2.80952-3.74603,1.75662-1.11397,4.70099-.76921,6.55555-1.87301,2.2493-1.33875,3.81811-4.44685,5.15079-6.08729,1.65941-2.04264,3.44066-4.07897,5.15079-6.08729,1.22531.21831,3.15743-1.74286,3.74603-1.87301,1.99298-.44068,10.77312-.28865,13.11109,0,4.11771.50837,9.94989,2.83883,14.0476,3.74603,21.56499,4.77431,48.09496,3.95472,68.36498-2.80952,3.28517-1.09628,5.53932-2.84515,8.89681-2.80952-.37362-2.72448.45364-1.47689,1.40476-1.87301,4.77986-1.99071,10.04139-4.09676,14.98411-5.61904,19.91881-6.1347,42.40927-9.87458,63.68245-8.42856,3.31796.22553,7.11247-.39373,10.30157,0,.34288.04233.57644.8711.93651.93651,1.13946.20698,2.75497-.27311,3.74603,0,.41497.11436,5.97294,5.67233,6.08729,6.08729.21906.7949-.21802,2.01215,0,2.80952.11779.43079,2.98247,2.27755,3.27777,2.34127,2.10352.45385,5.28024-.39449,7.49205,0,1.40022.24974,7.54994,3.56219,9.36507,4.68253,2.83536,1.75006,7.20692,5.71133,10.30157,6.55555.78077.21299,1.96005-.18552,2.80952,0,.36775.08031.59036.88586.93651.93651,2.00336.29313,7.3617.29313,9.36507,0,.34508-.05049.56551-.85021.93651-.93651.83692-.19468,2.02749.21551,2.80952,0,.42902-.11823,1.23636-1.44017,1.87301-1.87301.23074-.15688.75477.13787.93651,0,2.55413-1.93764,2.94974-5.29101,3.27777-5.61904.26204-.26204,5.74329-.65115,7.0238-.93651,6.22534-1.3873,10.13354-3.00187,16.85712-1.87301.95727.16072,4.70037,1.73653,5.61904,1.87301,1.15152.17108,3.53132.17129,4.68253,0,.34788-.05176.57273-.86304.93651-.93651.86478-.17464,2.04802.21667,2.80952,0,3.39345-.96556,7.72936-3.78432,11.23808-5.61904,1.02465-.53579,2.63669-1.82539,2.80952-1.87301.84851-.23383,3.0265.25127,3.27777,0,.19533-.19533-.18905-1.65215,0-2.34127.1015-.36996.83501-.56654.93651-.93651.18905-.68912-.19533-2.14594,0-2.34127.18422-.18422,2.41465.67597,3.74603-1.40476,1.77548-2.77479,1.40561-6.99722,5.15079-9.83332,7.7479-5.86723,5.54285-6.32634,8.89681-14.51585.54906-1.34067,2.24687-3.33526,2.80952-4.68253.21095-.50513-.16374-1.24101,0-1.40476,1.86396.25615,4.38083-.3701,6.08729,0,1.64095.35589,5.44772,2.90004,8.42856,3.74603.38098.10813.589.87454.93651.93651,1.22138.2178,4.34395.18658,5.61904,0,.34623-.05066.56903-.85668.93651-.93651,2.78886-.60581,2.76783-.18747,5.61904-1.87301,2.62265-1.55042,4.41573-2.96694,7.49205-3.74603,7.25803-1.83813,14.59255-1.42055,22.47616-1.87301.32889-.01888.60955-.9203.93651-.93651,15.292-.75819,31.14756.90736,45.88882-.93651,1.699-.21251,4.23165.38013,5.61904,0,2.26717-.62118,2.66601-3.66601,8.42856-2.80952,1.45307.21597,5.01537,1.55341,6.55555,1.87301,3.50676.7277,17.50907,4.25011,19.66664,3.74603,7.28474-1.70196,14.86565-1.76513,22.47616-2.80952,1.54171-.21157,6.04758-1.74148,7.49205-1.87301,3.46146-.31521,7.26504.22591,10.76983,0-1.06458,1.54302-1.07818,2.83049-.93651,4.68253-4.43357-1.03216-4.56966,1.16577-7.0238,2.80952-.94209.631-3.70429,1.24113-4.68253,1.87301-1.98289,1.28082-.83031,2.98765-2.34127,4.21428l.93651,3.27777c2.08206-.46532,1.7993.55986,2.80952,2.34127,3.30669,5.83098,7.33577,11.4621,10.30157,17.79363,1.90962,4.07674,2.84152,7.64342,3.74603,12.17459.07253.36335.88567.58907.93651.93651.24627,1.68306.24627,5.80899,0,7.49205-.09137.62443-1.62782,3.82354-1.87301,4.68253-1.95868,6.86185-5.44032,19.07055-12.17459,22.00791v1.87301h-1.87301c.49444,3.77039-.47354,2.29066-1.40476,2.80952-2.68963,1.49863-8.8922,9.22685-10.76983,11.70633-2.28961,3.02351-15.15943,11.28549-15.92061,14.0476-.79142,2.87183,1.16489,1.846-1.40476,3.27777-.85884.47853-12.39615,11.78357-12.64284,12.64284-.28139.98015-.29305,2.74042-.93651,3.74603-1.15274,1.80154-2.70205,1.46383-4.68253,1.40476.63587,6.50436-6.38048,9.91642-10.76983,13.11109-2.10856,1.53466-11.93306,9.04156-13.11109,9.36507-3.9792,1.09274-4.80516-.14532-9.36507,2.80952-12.25886,7.94379-22.5178,20.32366-36.52376,26.22219-5.24016,2.20686-10.71069,4.15857-15.92061,6.55555l-12.17459,12.17459c-2.62786.61249-6.47281,3.83967-7.96031,6.08729-.26114.39458-.66976,2.21639-.93651,2.80952-.17481.38869-.80269.57329-.93651.93651-.19374.52585.17094,1.27341,0,1.87301-.10869.38125-.87454.58913-.93651.93651-.31219,1.75023-.31113,8.54885,0,10.30157.06235.35124.84435.56407.93651.93651.33632,1.35914.55171,3.37475.93651,4.68253.75819,2.5768,5.97525,1.18115,4.68253,8.42856-.06159.34528-.81942.55125-.93651.93651-.93475,3.07557,6.1156,15.85305,7.49205,19.66664,2.19566,6.08329,2.59359,16.64986,1.87301,23.41267-.03627.34041-.8842.58441-.93651.93651-.52376,3.52536,1.53154,10.64211,2.80952,14.0476.5449,1.45202,2.56163,4.22908,2.80952,5.61904.64031,3.5903-.2833,10.54581-.93651,14.0476-2.82619,15.15101-7.70427,30.43888-13.11109,44.95232-2.98019,7.99967-7.38886,19.96014-12.17459,27.15869-.69942,1.05205-4.67843,4.25557-4.68253,4.68253-.00225.2337,1.4004,1.02395.93651,1.40476-4.05795-.41615-2.25724.2975-2.80952,2.34127-2.11916,7.84208-2.6531,16.45167-4.68253,24.34917-5.29069,20.58863-19.82863,37.92603-29.03171,57.1269-1.62911,3.39891-2.74266,6.24668-3.74603,10.30157-.09216.37243-.87416.58526-.93651.93651-.18898,1.06463-.16436,3.57623,0,4.68253.05192.3495.8727.57866.93651.93651.34979,1.96174-.24764,3.6295.93651,5.61904.33088.55593,4.79966,5.05402,5.15079,5.15079,1.5603.42999,4.60532-.21073,6.55555,0,8.54073.92287,15.9471.48222,24.34917,0,5.8725-.33704,11.27017.22923,16.85712-.93651,13.43317-2.80289,27.72946-10.36857,41.20629-14.0476,1.17364-.32039,4.6825-1.75739,5.61904-1.87301,16.21849-2.00234,30.68917,2.76624,44.95232,5.61904,5.25876,1.05182,10.95316,2.36786,16.85712,1.87301,11.50023-.9639,22.61744-3.07447,34.65075-.93651,5.26571.93556,10.85987,1.42891,15.92061,2.80952,2.14367.58481,6.46713,5.19493,8.42856,5.61904,1.09923.23768,2.65915-.24348,3.74603,0,.3588.08038.56114.83305.93651.93651,1.23347.33998,1.51217-.86365,1.87301-.93651.86379-.17441,2.03751.21275,2.80952,0,.51466-.14183,1.35835-1.73118,1.87301-1.87301,4.29274-1.18299,11.02626-1.22084,15.92061-.93651,9.66887.56171,20.16158,1.83131,29.96821,0,5.20971-.97287,12.04713-3.97874,16.85712-4.68253,2.19596-.32131,5.66599.50322,7.49205,0,.28729-.07917,3.73204-3.57229,4.21428-4.21428,2.08813-2.7799,3.72682-6.9467,4.68253-10.30157.1086-.38121.87454-.5891.93651-.93651.71226-3.99317.53447-20.0201,0-24.34917-.31718-2.56908-2.04508-6.76323-2.80952-9.36507-3.50431-11.92723-9.87978-22.68106-14.0476-33.71424-2.36538-6.2617-3.93595-13.38697-6.55555-19.66664-.99269-2.37968-6.18531-12.15369-7.96031-12.64284-.79525-.21915-2.01427.21915-2.80952,0-.22344-.06158-3.01732-2.84017-3.27777-3.27777-.11258-.18916-.82877-1.60283-.93651-1.87301-.77893-1.95348-.58202-4.56038-.93651-6.55555-.9946-5.59799-1.97695-11.11775-3.74603-16.85712-.62638-2.03215-1.90588-7.00361-2.80952-8.42856-1.09294-1.72346-2.35528-.78411-3.74603-3.74603-2.84734-6.06408-4.53818-12.41152-6.55555-18.73013-2.23786-7.00923-4.03245-14.24968-5.61904-21.53965-2.21434-2.62642-7.03629-12.80854-9.83332-13.57935-1.09772-.30251-2.93408.20064-4.21428,0,.76928-4.08459-1.8566-6.27125-5.15079-3.74603h-1.87301c-1.66537-.50615-4.15345-3.60022-4.68253-3.74603-1.09772-.30251-2.93408.20064-4.21428,0l.93651-2.80952h-1.40476l-10.30157-5.61904c-3.76981-1.18283-3.78634-3.18489-8.42856-4.68253-3.5423-1.14279-7.8075-1.85736-11.23808-3.74603-.64556-.3554-1.2242-1.51151-1.87301-1.87301-.44299-.24683-1.22987.17489-1.40476,0-.16362-.16362.21058-.89915,0-1.40476-.16382-.39334-.83078-.58136-.93651-.93651-.22389-.75207.18647-1.95687,0-2.80952-.08021-.36677-.87859-.58586-.93651-.93651-.23378-1.41546.33201-3.47574,0-4.68253-.17963-.65294-8.662-6.81382-9.36507-9.36507-.33455-1.21397.24912-3.27914,0-4.68253-.54506-3.07058-4.20128-8.53961-4.68253-11.23808-.2309-1.29472-.26156-6.28236,0-7.49205.74617-3.45096,5.00632-4.17245,3.74603-11.23808-.05886-.33-1.81415-3.41603-1.87301-3.74603-.80585-4.51788.65914-6.8878,1.87301-10.30157.9394-2.64189,1.81272-5.68084,2.80952-8.42856.20086-.55368,1.43097-.79754.93651-2.34127h1.87301v-1.87301c.75205-.10236,1.72754.18114,2.34127,0,.3495-.10315,2.70241-2.58477,3.74603-2.80952,2.00969-.4328,5.18905.2128,7.49205,0,9.43515-.87181,18.47353-.37851,28.0952.93651,2.38432.32587,6.584,1.48482,8.42856,3.74603h19.66664c2.04999-1.17585,1.04669-2.6911,1.40476-4.21428.71935-3.06,2.60921-6.41983,3.74603-9.36507.77008-1.99511,2.55111-6.66247,2.80952-8.42856.71327-4.87473-.22288-13.0537-.93651-17.79363-.05309-.35266-.90146-.59701-.93651-.93651-.56116-5.43612-.14235-11.49557,1.87301-15.92061.88772-1.94913,3.45279-4.31006,3.74603-5.61904.46704-2.08479-.45666-5.38496,0-7.49205.02892-.13342,1.13948-1.93202,1.40476-2.34127.63318-.97678,1.77712-1.2371,2.80952-.93651,1.73299.50457.95993,3.34528,2.34127,4.21428.81307,9.01992-2.6161,17.3564-1.87301,26.22219.74964,8.94392,1.50213,18.06331,0,27.15869-.0579.35059-.85598.56956-.93651.93651-.3216,1.4655.03235,3.154-.93651,4.68253-.9025,1.42385-3.54157,1.82731-4.68253,3.74603-.11998.20177.13215.64611,0,.93651-.18472.40591-.86195.60364-.93651.93651-.19983.89222-.21753,5.76618,0,6.55555.06158.22344,3.055,3.21382,3.27777,3.27777.58598.16823,1.31601-.17792,1.87301,0,.38842.12407.59306.87525.93651.93651,3.26692.58272,8.20432.28054,11.23808.93651.34141.07382,2.26869,1.65618,2.80952,1.87301,2.74577,1.10087,6.76672,2.08508,9.36507,3.74603,1.63712,1.0465,1.57729,3.03116,2.34127,4.21428,1.19885,1.85658,2.1619,1.04833,3.27777,1.40476.38842.12407.59306.87525.93651.93651,7.79306,1.39005,16.39742.55096,23.41267,3.74603,2.07498.94504,4.04508,3.30321,5.61904,3.74603.95989.27006,2.48754-.51605,3.27777.46825.48325.97217,1.87301-.8318,1.87301-.93651v-144.69027c-1.35219.1382-2.92788-.20859-4.21428,0-3.54916.57551-7.76769,1.87172-11.23808,2.80952-.69143.18684-2.14691-.19436-2.34127,0-.23732.23732.20561,2.4052,0,3.27777-.54761,2.32392-4.18494,4.52415-5.61904,6.55555-.19066.27006-.1587,1.80785-1.40476,2.34127-2.33855-.27614-5.2924.39196-7.49205,0-.34476-.06143-.55038-.81755-.93651-.93651-1.43445-.44191-4.32145,1.79181-5.15079.93651-.90272-.93099.65822-2.68492.93651-3.27777.13353-.28447-.12155-.73228,0-.93651.21773-.36582,2.17411-2.29328,2.34127-2.34127,3.77335-1.08329,5.9592-1.5387,9.36507-3.74603,8.11909-5.26195,13.57299-9.18615,22.47616-13.11109.53395-.23539,3.27777-1.96062,3.27777-2.34127V59.45609ZM992.41144,189.63051c-.1755-.1755.24901-.96698,0-1.40476-1.25701-2.20992-3.26156-1.0616-5.15079-1.40476-17.35911-3.15317-39.367,2.14972-56.1904,4.68253-3.97728.59879-7.53321.74819-11.23808,0-6.47152-1.30691-13.26224-2.97567-19.66664-4.68253-.79413-.21165-2.20034-1.67153-4.21428-.93651v1.87301c-23.69932,7.67258-49.11431,12.03102-71.64276,26.22219-3.45687,2.17756-3.54001,1.78739-6.08729,5.15079-2.45605,3.24293-5.38609,2.10832-5.61904,2.34127-.20022.20022.2002,1.66523,0,2.34127-.14656.49491-4.40292,4.64264-4.68253,5.61904-.16792.58638.17781,1.31617,0,1.87301-.12402.3884-.87525.59305-.93651.93651-.18936,1.06167-.16432,3.57825,0,4.68253.05161.34682.85662.56911.93651.93651.18489.8503-.21284,2.02889,0,2.80952.08414.3086,2.60467,5.31037,2.80952,5.61904.82926,1.24952,4.46707,3.90053,4.68253,4.68253.21913.79529-.21913,2.01423,0,2.80952.32147,1.16671,6.34042,3.54867,7.96031,4.21428,2.76648,1.13675,3.56216,1.27461,6.55555,1.87301.36342.07265.58909.88567.93651.93651,1.38946.2033,4.19639.17752,5.61904,0,1.10163-.13746,5.50283-1.76435,6.55555-1.87301,5.22639-.53949,12.82884-.50978,16.85712,1.87301,16.82995,8.86943,32.13251,15.00951,51.50786,12.17459.34743-.05083.57315-.86398.93651-.93651,2.47121-.49329,5.92433-.88128,8.42856-1.87301,9.20317-3.64466,15.34697-10.81077,19.19839-19.19839l5.61904-5.61904c-.51263-4.05353,8.08692-10.93467,8.42856-12.17459.21913-.79529-.21913-2.01423,0-2.80952.4802-1.74279,8.78805-7.77904,10.76983-8.89681,5.60445-3.16105,21.39716-9.45857,27.15869-10.30157,2.52742-.3698,7.94039.99064,8.89681-2.34127.16821-.586-.17791-1.31601,0-1.87301.1225-.38354.85338-.58069.93651-.93651.54147-2.31767-.78144-3.09564-.93651-3.74603-.36706-1.53954-.36194-4.05733-.93651-5.61904-.45086-1.22546-2.07975-3.37079-2.80952-4.68253-.14326-.25751.13019-.73319,0-.93651-1.48256-2.31528-4.36299-1.08521-4.68253-1.40476ZM513.85655,246.75741h-7.96031l-2.80952,3.74603c-3.24557.93018-13.98325,5.32375-15.45236,7.96031-.24682.44296.17489,1.22987,0,1.40476s-.9618-.24682-1.40476,0c-2.4995,1.39274-5.4263,7.22617-7.0238,9.83332-6.68296,10.90672-19.70758,21.39189-29.49996,29.49996-6.71871,5.56308-12.02371,10.47424-18.73013,15.92061-3.13371,2.54493-7.1017,7.06124-10.76983,7.49205.44672,5.08539-5.07957,12.56893-8.89681,14.98411-1.10751.70073-1.80283,1.94438-1.40476,3.27777.91527,3.06578,9.81942,2.31406,12.64284,2.34127l7.49205,3.74603c1.77519-1.10114,3.93533-6.0925,5.61904-6.55555,2.50301-.68837,7.40411.51678,10.30157,0,.38701-.06903,3.20238-1.72485,3.74603-1.87301.68993-.18803,2.14636.19491,2.34127,0,.17489-.17489-.24682-.9618,0-1.40476,2.2559-4.0486,11.27839-4.1288,15.45236-5.15079,2.61446-.64015,5.6264-2.00359,8.42856-2.80952.34457-.0991,4.98315-3.27512,5.61904-3.74603,2.8761-2.1299,3.82275-4.80603,5.15079-7.96031,4.32183-10.26497,5.02679-19.53503,7.49205-29.96821.65508-2.77234,2.50844-6.04064,2.80952-9.36507,3.13099-9.24494,13.57405-10.71051,15.92061-20.60315,1.84311-1.73502,3.46134-2.82894,2.80952-5.61904-.08398-.35947-.82749-.55921-.93651-.93651-.17214-.59574.19211-1.34166,0-1.87301-.19973-.55245-1.43117-.79756-.93651-2.34127ZM645.43573,368.50328h-19.66664c-.34674,0-4.11918,3.33767-5.61904,3.74603-1.83389.4993-3.52318.46337-4.68253,0-1.39333-.55689-.86809.79126-2.80952,1.87301-11.16206,6.21944-21.07123,14.37785-30.90472,22.47616-2.42737,1.99904-6.71597,6.8737-8.42856,7.49205-.79011.28528-.65775,1.7101-.46825,2.34127.08569.28541,3.92699,4.13512,4.21428,4.21428,2.91386.80288,8.79497-.60271,12.17459,0,1.28888.22985,4.71619,2.14197,6.55555,2.80952,10.14031,3.68019,21.95974,6.40483,32.77773,9.36507,3.44613.943,8.93097,3.27143,12.17459,3.74603,2.15354.3151,4.78783-.22034,7.0238,0-.51457,1.50424.87199,1.97462.93651,2.34127.49626,2.82037-.23065,8.65057-.93651,11.23808-.27366,1.00318-2.36666,2.72621-1.87301,4.21428h-2.80952c1.41378,6.14958-7.03282,5.0885-5.61904,11.23808-5.35823-1.09158-6.19889,4.79693-9.83332,7.49205-4.77366,3.53992-11.36003,6.59668-16.85712,8.42856-.97211.32395-3.94666,1.75148-4.68253,1.87301-1.43219.23653-3.22674-.21917-4.68253,0-.35263.05309-.59672.90104-.93651.93651-2.06756.21581-5.40834.19704-7.49205,0-.33801-.03196-.58955-.89248-.93651-.93651-4.51309-.57273-7.88757-.55456-12.17459-1.87301-2.72614-.83841-7.71932-2.62777-10.30157-3.74603-1.39846-.60561-3.26277-2.01965-4.68253-2.80952-.35365-.19675-2.0272-.26493-2.34127-1.40476-.20613-.74809-.18456-4.7654,0-5.61904.06585-.30456,1.51699-2.20713,1.87301-2.80952.14634-.24761-.13349-.73513,0-.93651,1.61506-2.43646,5.47766-3.68321,6.55555-5.61904.24675-.44315-.17487-1.22989,0-1.40476.59917-.59917,4.17358-.66993,5.15079-.93651.42317-.11544,2.30683-1.70022,2.80952-1.87301,2.26249-.77772,9.84439-3.13512,11.23808-2.80952.46024.10753,3.38079,1.80787,3.74603,1.87301,2.06922.36907,4.83154-.25828,7.0238,0v-3.74603c-1.48807.49364-3.2111-1.59935-4.21428-1.87301-11.81089-3.22193-34.76366.52669-44.95232,6.55555-1.44573.85547-4.38202,3.66322-4.68253,3.74603-.84533.23292-3.34239.86985-3.74603.93651-1.43219.23653-3.22674-.21917-4.68253,0-.35266.05309-.59701.90146-.93651.93651-3.63314.37503-10.23995-.79111-13.11109,0-1.60491.44221-1.15576,2.4982-1.40476,3.27777-.12406.38842-.87525.59306-.93651.93651-.7128,3.99633.33494,11.87749.93651,15.92061.05142.34559.84981.56541.93651.93651.61479,2.6315-1.57602,4.89044-1.87301,6.55555-.17481.98006-.22239,4.81192,0,5.61904.16591.60213,2.29049,1.93743,2.80952,2.80952,1.26893,2.13206,1.18171,7.37609.93651,10.30157-2.0249,24.15911,2.40132,48.37367,6.55555,71.1745,1.74241,9.56337,2.8413,21.07758,6.55555,29.96821,1.1657,2.79029,4.21222,6.72751,4.68253,9.36507.39356,2.20712-.46453,5.41832,0,7.49205.07455.33281.75163.53056.93651.93651.13224.29037-.12.73488,0,.93651,1.209,2.03137,4.84533,3.64827,5.61904.93651.53039-1.85894-.89588-2.55458-.93651-2.80952-.18563-1.16493.23401-2.66364,0-3.74603-.19114-.88408-2.43955-4.31766-2.80952-5.61904-.29243-1.02864-1.10852-5.78667-.93651-6.55555,1.42313-.42863.21442-4.34004,2.34127-3.27777,1.47089.73465,2.64288,2.10844,3.74603,2.80952,7.4172,4.71386,17.48193,12.14834,21.0714,20.60315h2.80952v1.87301c6.99336,2.47165,13.87317,9.32473,20.13489,14.0476,2.84406,2.14512,2.35497,5.77877,7.0238,4.68253v3.74603c1.32008.17273,3.01305-.26058,4.21428,0,3.11346.6754,9.98089,5.87688,13.11109,7.49205,31.46844,11.12954,59.19797,5.60278,88.03162-9.36507,4.67912-2.42898,3.58668-2.1728,6.08729-6.08729.79377-1.24257,15.36482-11.8204,17.32537-12.64284,2.43211-1.02025.95264-1.62302,2.80952-2.80952,3.82637-2.44497,5.44069-4.62215,10.30157-6.55555.39877-.15861.59465-.86112.93651-.93651,1.69673-.37416,4.22769.25898,6.08729,0-.1211,1.41325-.22236,4.21315,1.40476,4.68253,3.69839,1.06689,2.87157-2.7306,3.27777-4.21428,1.22786-4.4848,5.56728-11.27868,7.49205-15.92061,18.52846-44.68451,30.39351-87.41836,33.71424-135.79346.17824-2.5965.40989-7.97203,0-10.30157-.06451-.36664-1.45107-.83702-.93651-2.34127-1.64795-.16526-3.57273.24315-5.15079,0-3.36575-.5186-8.8324-3.25701-12.17459-3.74603-1.88797-.27624-9.59307-.36849-11.23808,0-.33281.07455-.53056.75163-.93651.93651-.29037.13224-.73488-.12-.93651,0-2.7785,1.65366-1.86434,3.10044-2.34127,5.15079-.0863.371-.88602.59143-.93651.93651-.5643,3.85672,1.37735,9.35113.93651,11.23808-.08534.36529-.85069.57128-.93651.93651-.19612.8347.21569,2.02674,0,2.80952-.41214,1.49577-3.72446,2.7112-5.15079,3.27777-.39863.15835-.59444.86088-.93651.93651-8.65078,1.91269-27.02653,3.04553-36.52376,1.87301-.91648-.11315-4.48656-1.59006-5.61904-1.87301-1.56212-.3903-3.92906-.42767-5.61904-.93651-5.20094-2.00929-8.78249-10.44864-13.11109-12.17459-.50744-.20233-1.26702.17324-1.87301,0-.38143-.10904-.58921-.87456-.93651-.93651-1.68616-.30075-3.92788.29757-5.61904,0-.32893-.05788-.5313-.76775-.93651-.93651-.50558-.21057-1.24114.16362-1.40476,0-.16378-.16378.21104-.89978,0-1.40476-.26397-.63161-1.64131-2.20715-1.87301-2.80952-.4027-1.04692-.62756-3.44286-.93651-4.68253-.0929-.37276-.87385-.58522-.93651-.93651-.18104-1.01502-.18104-3.66751,0-4.68253.06194-.34729.82747-.55508.93651-.93651.17323-.60596-.20229-1.36548,0-1.87301.14598-.36626.75781-.55047.93651-.93651.13291-.28712-.12084-.73332,0-.93651,1.15913-1.94901,3.8255-2.39269,5.15079-4.21428,17.35696-5.98948,33.82285-11.31423,51.50786-14.98411,1.38754-.28793,5.35509-1.7491,6.55555-1.87301,2.93139-.30259,6.62362.46768,9.36507,0,.36268-.06187.84115-1.45273,2.34127-.93651l.93651-4.21428c-1.12302-1.52396-2.36421-4.02349-4.21428-5.15079-.69911-.42599-3.14817-.80691-3.27777-.93651-.34526-.34526-1.21227-7.82022-2.80952-8.89681l-.93651-4.68253-1.40476-1.40476c-.79436,1.41846-1.92857.67574-2.80952.93651-.30093.08908-2.60164,2.35235-3.74603,2.80952-6.93453,2.77029-20.91735,5.97117-28.0952,6.55555-4.04963.32969-11.00027.41123-14.98411,0-.3395-.03504-.58385-.88341-.93651-.93651-8.13025-1.22404-10.63008-1.3879-17.79363-5.61904-1.02677-.60646-4.87152-2.33698-5.15079-3.27777-.20055-.67561.20037-2.14089,0-2.34127s-1.66566.20055-2.34127,0c-2.64973-.78656-11.93227-18.25916-14.51585-22.00791-2.57079-3.73019-8.2309-9.24346-9.36507-13.11109-.36615-1.24862.05381-3.13482-.93651-4.68253-1.10789-1.73146-2.68962-1.28486-2.80952-1.40476-.38077-.38077-.12792-9.19854,0-10.76983.02728-.33507.90059-.59493.93651-.93651.3485-3.31426-.23112-6.20837.93651-9.36507,1.40276-3.79238,5.24854-6.66344,6.55555-10.30157.37492-1.04363,1.60818-.2198,1.87301-.46825.58107-.54512-.5908-2.35865-1.40476-2.80952-6.81547,1.81881-10.16351,7.55227-12.64284,13.57935-1.13818,2.76684-1.27468,3.56252-1.87301,6.55555-.07265.36342-.88567.58909-.93651.93651-.40364,2.75869-.40366,11.28894,0,14.0476.05066.34623.85668.56903.93651.93651.47186,2.1723.48984,4.48493,1.87301,6.55555,1.12161,1.67904,6.12772,6.93288,6.55555,8.42856.16825.58821-.17993,1.32005,0,1.87301.1219.37461.81782.56334.93651.93651.34961,1.09926-.41581,3.00999-1.40476,3.27777ZM802.30059,316.99541c-1.84051-1.84051-5.02888,2.49874-3.74603,5.15079l7.49205,10.30157c3.68268,10.04111,6.95752,20.08619,9.36507,29.96821v36.99201c2.27473.79408,6.93503.91905,8.42856,3.27777,1.04019,1.64277,1.91749,3.63551,2.80952,5.61904.33768.75087,1.79704,3.32007,1.87301,3.74603.35627,1.99744-.66376,6.16117,2.34127,7.0238.586.16822,1.31601-.17791,1.87301,0,2.06035.65809,3.18041.5226,4.68253.93651.28729.07916,4.13206,3.92785,4.21428,4.21428.16822.586-.17791,1.31601,0,1.87301.12406.38842.87525.59306.93651.93651.93342,5.23322.27529,10.56486.93651,15.92061.04236.34309.87271.57741.93651.93651.36339,2.04534.1811,4.51329.93651,6.55555.21912.59238,1.44943,2.09752,1.87301,2.80952.14317.24065-.13544.72478,0,.93651,1.23752,1.93449,3.17836,2.48357,5.15079,3.27777.39085.15737.57842.82867.93651.93651,1.32636.39945,2.56585-.2906,3.27777-1.40476,2.27142-3.55477,5.69041-8.88008,6.55555-13.11109.2262-1.10626-.20334-2.59986,0-3.74603.06369-.35903.89415-.5934.93651-.93651.77961-6.31475.03597-21.03353-1.87301-26.22219-.41958-1.14044-2.53679-3.68225-2.80952-4.68253-1.19883-4.39691-1.19153-10.41791-1.87301-14.98411-.21654-1.45088.28827-3.34923,0-4.68253-.06584-.30453-1.51691-2.20715-1.87301-2.80952-.14637-.24759.13349-.73518,0-.93651-.37605-.56712-3.92785-4.13206-4.21428-4.21428-.586-.16822-1.31601.17791-1.87301,0-.38842-.12406-.59306-.87525-.93651-.93651-4.06741-.72548-9.98019.72548-14.0476,0-.34344-.06126-.54808-.81244-.93651-.93651-.557-.17791-1.28702.16822-1.87301,0-.22278-.06395-3.01854-2.84221-3.27777-3.27777-.11054-.18573-.9118-1.7627-.93651-1.87301-.72986-3.25813-.48694-4.12085-1.87301-7.49205-3.97369-9.6648-9.08432-18.22523-12.17459-28.0952-1.57564-5.03242-1.20845-7.49012-4.68253-12.17459-1.54144-2.07848-5.55359-5.69383-6.55555-7.49205-.24682-.44298.17489-1.22987,0-1.40476ZM698.34836,332.91602c-3.09965-.48341-5.66756-2.4613-8.89681-1.87301-.34431.06272-.54839.81254-.93651.93651-.557.1779-1.287-.1682-1.87301,0-.28643.08221-4.13207,3.92785-4.21428,4.21428-.1682.58601.1779,1.31602,0,1.87301-.12406.38842-.87525.59306-.93651.93651-.22714,1.27349-.26229,6.3211,0,7.49205.07455.33281.75163.53056.93651.93651.13224.29037-.12.73488,0,.93651,1.00743,1.69273,2.9439,2.16826,4.21428,3.27777h1.87301c2.91725-1.45824,4.16869-4.57728,7.96031-3.74603.15315-1.34024-.23112-2.96084,0-4.21428.06498-.3524.84233-.56345.93651-.93651.474-1.87758.53908-4.2712,1.87301-5.61904l-.93651-4.21428ZM731.12609,338.53506c-2.27834-.51043-4.60369-1.47863-7.0238-.93651-.33281.07455-.53056.75163-.93651.93651-.29037.13224-.73488-.12-.93651,0-2.77849,1.65366-1.86433,3.10042-2.34127,5.15079-.08627.37087-.88507.59083-.93651.93651-.17129,1.15122-.17108,3.53101,0,4.68253.0523.35204.89943.59554.93651.93651.24315,2.23589-.1699,4.74527,0,7.0238,3.54997.41691,6.49501-.02902,8.42856-3.27777.11255-.1891.82873-1.60271.93651-1.87301.94408-2.36772.53804-4.9345.93651-7.49205.05501-.35307.89002-.58954.93651-.93651.21584-1.61107-.14665-3.48827,0-5.15079ZM524.15813,407.83655c-1.51137-.14159-4.24813-.17159-4.68253,1.40476-.83403,3.02648.60593,9.16806,0,12.64284h4.68253v-14.0476ZM1138.50647,477.13804c-.60592-3.47492.83401-9.6163,0-12.64284-.63868-2.3177-6.6018-1.12142-8.89681-1.40476-6.30021-.77782-14.30694-4.15811-20.60315-5.61904-1.09342-.25371-3.39872-.88569-3.74603-.93651-6.15821-.90106-11.12451-.21508-9.83332,7.0238.06126.34344.81244.54808.93651.93651.17791.557-.16822,1.28703,0,1.87301.08223.28643,3.92785,4.13205,4.21428,4.21428.5768.16559,1.29621-.16559,1.87301,0,1.25139.35925,2.92743,3.22552,2.34127,4.68253h5.61904c-.37362,2.72448.45366,1.4769,1.40476,1.87301.4052.16876.60757.87863.93651.93651,3.14001.55253,10.51926.19299,14.0476,0,.32838-.01796.60579-.9153.93651-.93651,3.56208-.22842,7.20944.1636,10.76983,0ZM1138.50647,565.16967c-3.87362-.05213-3.87362,4.73466,0,4.68253v-4.68253ZM786.37998,774.01065v-48.23009c-1.43206-1.28492-5.33497-7.49492-7.0238-7.96031-1.58296-.43621-3.32957.02058-4.21428,1.40476-2.75504,4.31044-5.1487,8.17255-6.55555,13.11109-.10792.37883-.86301.58242-.93651.93651-.22869,1.10179.20362,2.59997,0,3.74603-.0638.35909-.89415.59341-.93651.93651-.41564,3.36657-.35429,10.61549,0,14.0476.03505.3395.88347.58388.93651.93651.52981,3.52227.46687,6.80926,1.87301,10.30157.8407,2.08795,2.56666,3.92597,3.74603,5.61904.15536.22302-.14081.75017,0,.93651,1.4872,1.96806,3.63038,2.40094,5.15079,4.21428,2.08154-.18045,3.27467,1.45339,5.61904.93651.41313-.09109.82481-1.45018,2.34127-.93651ZM622.49132,744.97894c-2.12908.22278-4.73733-.74328-6.08729.93651-.91373.278-4.06757-2.74528-4.21428-3.27777-.21839-.79264.2166-2.01157,0-2.80952-.17266-.63609-3.07996-3.09953-3.74603-2.34127.22146,1.9122-.32028,4.28289,0,6.08729.67308,3.79199,5.03789,9.85204,5.61904,13.11109.32142,1.80248-.22225,4.17603,0,6.08729h11.23808c-.57,2.41258,1.56816,2.26374,2.34127,2.80952,2.32617,1.64218,3.22393,3.5941,4.21428,6.08729.15835.39863.86088.59444.93651.93651.26566,1.20158.26741,8.17131,0,9.36507-.07455.33281-.75163.53056-.93651.93651-.13224.29037.12.73488,0,.93651-1.31855,2.21547-3.98432,3.90308-6.55555,3.27777-.34146,2.04477-1.38707,3.61358-.93651,6.08729.06346.3484.8285.55584.93651.93651,1.49293,5.26199,4.11591,9.73996,5.61904,14.98411.15416.53782,3.17254,3.744,3.74603,4.68253,6.47228,10.59217,11.30589,22.36697,14.0476,33.71424,2.05406,2.9686,3.00505,6.68133,3.74603,10.30157,1.21097,1.1694,2.22372,2.93181,4.21428,2.34127,1.49225-.44271,2.40394-3.8334,3.74603-4.68253,3.10594-1.96511,2.29292-1.70583,3.27777-5.15079.10904-.38143.87456-.58921.93651-.93651.82507-4.62583.26935-10.42454.93651-14.98411.05003-.34194,1.54749-1.511.93651-3.74603-.12807-.46849-2.69862-2.11085-3.27777-2.34127-1.25863-.50074-8.30915-2.1197-9.36507-1.87301-.35325.08253-1.91117.65816-2.80952.93651-.37651.11666-.56958.83437-.93651.93651-2.99413.83346-2.0094-.80915-2.34127-1.40476-.48463-.86977-2.63873-2.18964-2.80952-2.80952-.23819-.8645-.1598-4.52691,0-5.61904.08974-.61333,1.64882-3.85289,1.87301-4.68253.18681-.6913-.19436-2.1469,0-2.34127.16362-.16362.89918.21057,1.40476,0,.38484-.16028.56879-.80311.93651-.93651,1.9024-.69013,4.56252-1.30228,6.55555-1.87301.34462-.09869,3.3358-2.78531,4.21428-3.27777-.67289-1.39733.93651-2.64965.93651-2.80952,0-.3117-.87475-.57662-.93651-.93651-.15193-.88542.20838-2.04563,0-2.80952-.11508-.42185-1.70777-2.31697-1.87301-2.80952-4.84079-14.4294-9.8015-29.13384-14.98411-43.0793-.95387-2.56669-1.64873-4.98606-2.80952-7.49205-.29356-.63376-.14602-1.68166-1.40476-2.34127-2.04806,1.1771-1.04909,2.68524-1.40476,4.21428-.0863.371-.88602.59143-.93651.93651-.36549,2.49797.97645,7.9827-2.34127,8.89681-.78209.21549-1.9726-.19467-2.80952,0-.36882.08579-.58282.87191-.93651.93651-2.82197.5154-4.50731-1.04278-7.0238-.93651,1.90608-2.26209.15852-2.55889,0-3.27777-.38033-1.72473-.5713-3.79001-.93651-5.61904-.19239-.96352.12176-2.22881,0-3.27777ZM564.42791,746.85195h-2.80952v1.87301h-3.74603c-.14368,1.66476.21147,3.53505,0,5.15079-.04554.34794-.90423.59837-.93651.93651-.18432,1.93097-.39229,8.87774,0,10.30157.21828.79225,3.51304,2.93773,3.74603,3.74603,1.33028,4.61523,4.73663,9.37098,5.61904,13.11109.21667.91836-.1371,2.2417,0,3.27777h5.61904l-.93651,1.40476c.96012,1.46524,2.82174,1.34937,3.74603,2.80952,3.29348,5.20294,3.57277,10.14128,4.68253,15.92061.06915.36014.87718.58316.93651.93651.33033,1.96753-.23013,7.25184,2.34127,7.96031,1.88455.51923,5.55874-.42286,6.08729-2.34127.39497-1.43356.23888-10.23966,0-12.17459-.11396-.9231-1.57867-4.47293-1.87301-5.61904-2.39875-9.34024-7.70895-17.57062-11.23808-26.22219-1.9863-4.86937-3.37587-10.74224-6.55555-14.98411-1.14553-1.52821-3.90385-3.28505-4.68253-4.68253-.24682-.44297.17489-1.22987,0-1.40476ZM1090.74464,805.85187c-1.25867-1.20018-4.89116,2.05476-5.61904,3.27777-.12086.20307.13298.64942,0,.93651-.17882.38606-.79048.57027-.93651.93651-1.38974,3.48544-1.21456,9.53518-1.87301,13.57935h-1.87301c.21275,2.43543-1.63185,6.00691-1.87301,7.96031-.24081,1.95055-.37253,8.63853,0,10.30157.07455.33281.75163.53056.93651.93651.13224.29037-.12.73488,0,.93651.26043.43759,3.05433,3.21621,3.27777,3.27777.89768.24733,7.38512.22468,8.42856,0,1.37683-.29647,5.17406-3.717,6.55555-4.68253.22269-.15564.75085.14085.93651,0,1.67613-1.27156,2.19119-2.75706,3.27777-4.21428-.28603-4.57423-3.3226-7.53081-5.61904-11.23808-2.22089-6.92662-3.46411-12.70683-4.68253-19.66664-.06428-.36718-1.45256-.83952-.93651-2.34127ZM1138.50647,845.18515c-3.59014.4316-8.30579-.59846-11.70633,0-.32894.05789-.53131.76775-.93651.93651-.50564.21059-1.24114-.16362-1.40476,0-.17488.17488.24683.96176,0,1.40476-.28704.51517-1.58614,2.4198-1.87301,2.80952-.39224.53286-3.055,3.21381-3.27777,3.27777-2.21311.63546-4.41767.55101-6.55555.93651-.13429.02422-2.24478.84002-2.34127.93651-.17488.17488.24683.96176,0,1.40476-1.97409,3.54303-4.63627,1.68384-7.0238,2.34127-.58759.1618-7.03987,6.44843-8.42856,7.49205-2.00973,1.51035-5.08116,2.43892-7.49205,3.74603-.76701.41585-3.12075,1.77159-3.27777,2.34127.16928,4.35379-.23445,8.76476,0,13.11109.01769.32795.92113.61025.93651.93651.43933,9.3247-.3237,18.75893,0,28.0952-.82265.60501-1.5551,1.87333-2.34127,2.34127-1.77166,1.05452-5.47733,1.47358-7.49205,2.80952-.47213.31306-3.21619,3.05433-3.27777,3.27777-.48147,1.74678-.19653,10.69726,0,13.11109.02728.33507.90059.59493.93651.93651,2.80643,26.68872,1.82345,55.36424.93651,82.41258-.25359,7.73368.16726,15.35737.93651,22.47616.21073,1.95015-.43001,4.99545,0,6.55555.21576.78279,3.85364,3.43253,4.68253,4.68253,1.94337,2.93067,4.81889,9.18216,5.61904,12.17459.33737,1.26172-.64987,2.85567.93651,3.74603v29.96821c-3.18841,3.79006-8.65378,2.98846-7.49205,9.36507.06412.35193.84247.56339.93651.93651.67864,2.69269,1.22508,5.99932,2.80952,8.42856v10.76983c1.6424.06477,3.25237-.50145,4.21428.93651h45.88882c1.22073-1.51122,2.94566-.35865,4.21428-2.34127.11868-.18548-.13773-.63866,0-.93651.18567-.40152.84162-.59363.93651-.93651.21492-.7766-.18635-1.9604,0-2.80952.08162-.37189.93651-.627.93651-.93651v-276.73771ZM89.61905,889.20096c-.14332.14332-.1875,2.64821-1.87301,3.27777l-1.87301,4.68253c1.10315.69407,3.43004,3.99816,4.21428,4.21428,2.43711.6716,7.36376-.42986,10.30157,0,5.8305.85312,10.24551,3.74141,17.79363,2.80952.34282-.04232.57619-.8707.93651-.93651,5.61295-1.02516,5.88513,3.54784,9.36507,5.61904,2.89151,1.72098,8.58156,1.37994,12.17459,1.87301,1.54174.21157,6.04755,1.74147,7.49205,1.87301,9.66754.88035,12.87473-1.94041,20.60315-3.74603,2.17589-.50836,9.59513,2.24728,12.17459,2.80952,2.43609.53099,5.02555.47893,7.49205.93651.67055.1244,1.23593,1.04812,3.74603.93651,3.5279-.15688,4.67859-2.4477,1.87301-4.68253-.54781-.43637-2.47148-1.78079-2.80952-1.87301-5.16839-1.40996-11.5122-.69256-16.85712-1.87301-7.57626-1.67325-15.95894-5.94171-23.41267-8.42856-14.16695-4.72664-29.25543-4.55207-44.95232-5.61904-2.98678-.20302-8.18912-1.46529-11.23808-1.87301-.89634-.11987-4.96868-.18211-5.15079,0ZM256.31723,912.61363c.12085-.1107,2.66437-.12669,3.27777,0,1.75455.36239,3.34664,2.11925,4.68253,2.80952.61198.31621,2.09258.65173,2.80952.93651.39863.15834.59445.86088.93651.93651.76586.16932,3.99991.18752,4.68253,0,1.75159-.48117,4.79361-7.37421,6.08729-8.89681v-1.87301c-1.792-1.4714-3.35599-3.80362-5.15079-5.15079-.18828-.14132-.71447.15461-.93651,0-2.63559-1.83522-3.60868-3.51913-7.49205-2.80952-.35448.06477-.56988.85479-.93651.93651-.84842.1891-2.05036-.22232-2.80952,0-.36869.10797-.55976.81618-.93651.93651-.55699.1779-1.28699-.1682-1.87301,0-.17231.04946-2.55781,1.69006-2.80952,1.87301-.69179.50281-2.90357,2.64901-3.27777,3.27777-.12.20163.13224.64614,0,.93651-.18487.40595-.86196.6037-.93651.93651-.18272.81575-.1826,3.86639,0,4.68253.07435.33231.75053.53029.93651.93651.41289.90187.38983,2.54586,2.34127,2.34127,1.53171-.44663,1.28894-2.70344,1.40476-2.80952ZM278.79339,1131.75618v-23.88092c0-3.03637-4.58809-11.10979-5.61904-14.98411-.22094-.83031-.89878-3.48818-.93651-3.74603-1.11808-7.64105,1.27826-18.31139,2.80952-25.28568.59701-2.71913,2.40675-6.92637,2.80952-9.36507,3.92345-23.75556-3.1286-47.3107-6.55555-69.30149-.64225-4.12132-1.56619-9.34256-1.87301-13.11109-.74377-9.13532,1.24054-14.62794,2.80952-22.47616.07265-.36342.88567-.58909.93651-.93651.79911-5.46119-1.14673-8.58196-2.80952-13.11109-.14402-.3923-.85414-.58675-.93651-.93651-.21652-.91944.13702-2.24235,0-3.27777h-4.68253c.53477-1.78427-.61692-5.14374-2.34127-5.61904-1.21384-.33458-3.27917.24913-4.68253,0-2.58155-.45828-7.41389-3.12014-10.30157-3.74603-34.02034-7.37373-75.04931,1.45113-109.57128-4.68253-5.06868-.90057-11.13233-2.37347-15.92061-2.80952-4.41458-.40202-11.14853.82767-14.98411,0-1.87852-.40536-4.52853-4.12932-6.55555-4.68253-1.23616-.33738-1.49662.85222-1.87301.93651-.95269.21333-6.64996.23078-7.49205,0-.30517-.08363-2.71748-2.58798-3.74603-2.80952-2.18577-.47079-8.62115-.16472-11.23808,0-.33056.02081-.60452.91371-.93651.93651-5.91957.40645-8.70986.6368-13.57935-2.34127-1.0136-.6199-1.71812-.53233-2.80952-.46825l-.93651,215.39652c2.92609.16015,5.97588-.22576,8.89681,0,18.88532,1.45964,39.03402,3.84253,58.06341,4.68253,46.14173,2.03682,92.45084,3.52813,138.60298,5.61904,5.12984.23241,10.32778-.16881,15.45236,0Z"/>
  <path class="cls-1" d="M1086.0621,224.28126c.63748,2.57769-1.91673,4.02515-2.80952,6.08729-.22799.5266.23029,1.35135,0,1.87301-.16414.37182-.75752.55603-.93651.93651-.13852.29445.11959.74961,0,.93651-1.1528,1.80168-2.70223,1.46377-4.68253,1.40476l-.93651-4.21428c1.03454-.68152,1.15176-2.92751,2.34127-3.27777,2.40707-.70879,2.68509,1.34779,2.34127-3.74603h4.68253Z"/>
  <path class="cls-1" d="M601.88818,565.16967c-.18715-2.02417-1.56514-4.29466-2.80952-6.08729.16974-1.4893-.24892-3.28699,0-4.68253.06126-.34344.81244-.54808.93651-.93651.17791-.557-.16822-1.28703,0-1.87301.06395-.22278,3.05433-3.2162,3.27777-3.27777,1.15621-.31861,6.90426-.18819,8.42856,0,.34309.04236.57741.87271.93651.93651,15.01904,2.66843,25.34759,2.50561,40.26978.93651,8.49531-.8933,17.23948-.92967,25.28568-2.80952,2.97742-.69562,15.07663,2.47683,18.73013,2.80952,2.4216.22052,8.10956.39098,10.30157,0,.42597-.07598,2.99527-1.53559,3.74603-1.87301,3.2733-1.47116,4.97189-2.76712,8.42856-3.74603.38085-.10785.58893-.87451.93651-.93651,1.1727-.20916,5.47485-.2421,6.55555,0,.33281.07456.53056.75162.93651.93651.29037.13224.73488-.12.93651,0,.36596.21781,2.29728,2.18167,2.34127,2.34127.33707,1.22296-.93651,1.63467-.93651,1.87301,0,.36685,1.73106,1.35787,1.87301,1.87301.21909.79507.19955,5.65068,0,6.55555-.07539.34186-.7779.53774-.93651.93651-2.15089,5.40758-4.15207,7.85343-8.89681,10.76983-1.55886.95816-3.20741,1.73303-4.68253,2.80952-1.91244-.31883-4.90478.45489-6.55555,0-.51465-.14182-1.35836-1.73119-1.87301-1.87301-2.52764-.69653-4.4157.72068-5.61904.93651-1.14413.20521-2.64377-.22878-3.74603,0-.35397.07347-.55746.82814-.93651.93651-.60599.17325-1.36558-.20233-1.87301,0-.36624.14603-.55045.75768-.93651.93651-.28709.13298-.73344-.12086-.93651,0-.46367.27597-2.03122,1.85739-2.34127,2.34127-.1403.21896-1.81626,3.53797-1.87301,3.74603-.40009,1.46658-.45823,3.95301-.93651,5.61904-.05147.17928-1.94513,2.08744-2.34127,2.34127-.21146.13549-.69595-.1433-.93651,0-.6362.37898-2.40538,1.76276-2.80952,1.87301-3.48683.95122-7.60423,1.22739-11.23808,1.87301-3.65374.64916-9.489,1.68085-13.11109,1.87301-4.75091.25205-15.46822.74882-19.66664,0-.27269-.04864-1.33959-1.59053-2.80952-.93651-.49249-.87853-3.17905-3.86957-3.27777-4.21428-.83488-2.91511-1.83803-4.90739-2.80952-7.49205-.37604-1.00047-.55256-3.72117-.93651-4.68253-.2339-.58565-1.8621-3.1374-2.34127-3.27777-1.1625-.34056-3.6623-.5407-4.68253-.93651-2.94744-1.14347-7.7664-4.23034-10.30157-4.68253-2.21633-.39532-5.19567.33876-7.49205,0-.27348-.04034-1.57974-1.65075-3.27777-.93651Z"/>
  <path class="cls-1" d="M680.08648,505.23324c1.01503-.18104,3.6675-.18104,4.68253,0,.34729.06194.55508.82746.93651.93651.60599.17324,1.36558-.20233,1.87301,0,.36504.14555.54962.7546.93651.93651.46923.22062,2.03567.29564,2.34127,1.40476.55736,2.02287-.10205,9.22118-2.34127,9.83332-3.18291.87012-8.10093-1.69081-10.30157,1.87301-1.00471-1.12134-5.81585-3.21986-6.08729-4.21428-.77218-2.8288,1.39443-6.79003,3.27777-8.89681,1.18934-.62355,2.66949-.62874,3.74603-.93651.38143-.10904.58921-.87456.93651-.93651Z"/>
  <path class="cls-1" d="M648.71351,506.16975v1.87301c1.86913-.42675,3.71553.71647,4.68253,2.34127.12.20163-.13224.64614,0,.93651.18487.40595.86196.6037.93651.93651.53669,2.39592-.20047,4.81319-2.34127,6.08729-.20163.12-.64614-.13224-.93651,0-.40595.18487-.6037.86196-.93651.93651-1.15995.25983-5.2418.19222-6.55555,0-.34508-.05049-.56551-.85021-.93651-.93651-.83692-.19467-2.02742.21548-2.80952,0-.22345-.06156-3.01734-2.84019-3.27777-3.27777-.12-.20163.13224-.64614,0-.93651-.18461-.40537-.85949-.60229-.93651-.93651-.62895-2.72947,1.77809-4.99376,3.27777-7.0238h9.83332Z"/>
  <path class="cls-1" d="M664.16587,493.99516c.96741-.14395,3.90865-.21322,4.68253,0,2.96479.81685,4.95135,8.16388,0,8.42856-2.93304,1.63882-6.5981,2.04824-10.30157,1.87301-.8495-1.36745-3.75123-.63227-4.21428-2.34127-.56657-2.09104.6083-4.0506,2.34127-5.15079.2332-.14805,3.53797-1.81626,3.74603-1.87301.7804-.21288,1.959.18474,2.80952,0,.36735-.07979.58968-.8849.93651-.93651Z"/>
</svg>